<svg xmlns="http://www.w3.org/2000/svg" viewBox="0 0 1000 24" width="100%" height="24">
  <!-- Soft pink wave line -->
  <path d="M 0 12 Q 25 2, 50 12 T 100 12 T 150 12 T 200 12 T 250 12 T 300 12 T 350 12 T 400 12 T 450 12 T 500 12 T 550 12 T 600 12 T 650 12 T 700 12 T 750 12 T 800 12 T 850 12 T 900 12 T 950 12 T 1000 12" fill="none" stroke="#ffccd5" stroke-width="4" stroke-linecap="round" />
  
  <!-- Tiny decorative dots -->
  <circle cx="25" cy="20" r="2.5" fill="#ff85a1" />
  <circle cx="75" cy="4" r="2.5" fill="#ff85a1" />
  <circle cx="125" cy="20" r="2.5" fill="#ff85a1" />
  <circle cx="175" cy="4" r="2.5" fill="#ff85a1" />
  <circle cx="225" cy="20" r="2.5" fill="#ff85a1" />
  <circle cx="275" cy="4" r="2.5" fill="#ff85a1" />
  <circle cx="325" cy="20" r="2.5" fill="#ff85a1" />
  <circle cx="375" cy="4" r="2.5" fill="#ff85a1" />
  <circle cx="425" cy="20" r="2.5" fill="#ff85a1" />
  <circle cx="475" cy="4" r="2.5" fill="#ff85a1" />
  <circle cx="525" cy="20" r="2.5" fill="#ff85a1" />
  <circle cx="575" cy="4" r="2.5" fill="#ff85a1" />
  <circle cx="625" cy="20" r="2.5" fill="#ff85a1" />
  <circle cx="675" cy="4" r="2.5" fill="#ff85a1" />
  <circle cx="725" cy="20" r="2.5" fill="#ff85a1" />
  <circle cx="775" cy="4" r="2.5" fill="#ff85a1" />
  <circle cx="825" cy="20" r="2.5" fill="#ff85a1" />
  <circle cx="875" cy="4" r="2.5" fill="#ff85a1" />
  <circle cx="925" cy="20" r="2.5" fill="#ff85a1" />
  <circle cx="975" cy="4" r="2.5" fill="#ff85a1" />
</svg>
